<svg xmlns="http://www.w3.org/2000/svg" viewBox="0 0 954 784"><path d="m234.063 7.688 2.588.006c66.34.268 122.77 29.213 168.81 75.533l3.972 3.97c2.74 2.74 5.476 5.486 8.21 8.233a5522.21 5522.21 0 0 0 10.541 10.558c2.715 2.718 5.43 5.438 8.143 8.159l3.89 3.897c1.8 1.801 3.597 3.606 5.39 5.412l1.624 1.62c3.29 3.32 4.63 4.853 5.277 9.55-.25 10.005-15.382 20.4-22.113 27.12l-4.26 4.263c-2.962 2.96-5.925 5.92-8.89 8.88-3.804 3.8-7.604 7.6-11.403 11.403-2.924 2.928-5.85 5.853-8.778 8.778a5577.655 5577.655 0 0 0-4.207 4.21 3592.7 3592.7 0 0 1-5.86 5.851l-1.757 1.765c-3.428 3.411-5.014 4.931-9.858 5.598-9.215-.199-17.071-12.115-23.194-18.336a2270.08 2270.08 0 0 0-5.394-5.453 5808.809 5808.809 0 0 1-15.32-15.49 2566.79 2566.79 0 0 0-9.423-9.516 789.212 789.212 0 0 1-3.543-3.595c-22.408-22.873-50.852-36.708-83.343-37.136-31.714.401-59.796 12.731-82.158 35.027l-2.132 2.063c-19.156 19.856-29.204 49.418-28.827 76.735 1.655 42.065 22.462 67.892 51.12 96.46l5.276 5.272c4.599 4.595 9.2 9.187 13.803 13.78 4.708 4.697 9.413 9.397 14.118 14.097 9.212 9.2 18.426 18.399 27.643 27.594 7.045-5.76 13.368-12.235 19.785-18.671l3.91-3.91c3.575-3.574 7.146-7.151 10.716-10.728 3.854-3.861 7.71-7.72 11.568-11.577 6.68-6.684 13.36-13.37 20.038-20.056 9.664-9.676 19.33-19.35 28.998-29.02a307399.04 307399.04 0 0 0 47.08-47.116l1.422-1.424a2277625.83 2277625.83 0 0 0 44.25-44.29l1.42-1.423c16.108-16.12 32.216-32.24 48.327-48.357 9.642-9.647 19.284-19.296 28.922-28.948 6.605-6.613 13.21-13.224 19.818-19.833 3.812-3.813 7.623-7.627 11.432-11.444 3.488-3.495 6.98-6.988 10.472-10.48 1.26-1.26 2.522-2.522 3.78-3.785C552.12 76.744 558.31 70.642 565 65c1.01-.888 2.02-1.777 3.027-2.668C602.002 32.918 643.553 15.054 688 9l2.244-.313c55.943-6.7 116.98 7.82 161.818 42.5a312.478 312.478 0 0 1 4.174 3.365 363.138 363.138 0 0 0 4.215 3.4C876.691 70.985 891.047 85.956 903 103l2.55 3.508c33.316 46.846 46.426 108.907 36.961 165.41-7.808 43.153-25.748 84.292-56.062 116.457a174.794 174.794 0 0 0-5.34 6.018c-5.165 5.912-10.762 11.404-16.316 16.947l-3.52 3.523a8222.724 8222.724 0 0 1-7.335 7.33 7134.07 7134.07 0 0 0-9.405 9.408 7991.126 7991.126 0 0 1-7.25 7.25 3793.843 3793.843 0 0 0-3.47 3.472c-1.608 1.611-3.22 3.219-4.832 4.825l-2.776 2.773c-2.817 2.655-4.543 3.315-8.33 3.58-3.715-.12-5.548-.611-8.274-3.14l-2.097-1.939c-5.712-5.524-11.37-11.1-16.996-16.711l-2.077-2.068c-3.616-3.602-7.23-7.206-10.841-10.813-3.726-3.72-7.46-7.43-11.198-11.14-2.88-2.861-5.754-5.73-8.626-8.6a1600.383 1600.383 0 0 0-4.132-4.108 1322.62 1322.62 0 0 1-5.75-5.742l-1.726-1.698c-2.94-2.972-5.235-5.413-6.158-9.542.052-5.134 1.18-7.864 4.81-11.512l1.637-1.552 1.72-1.704a479.712 479.712 0 0 1 3.714-3.625 709.16 709.16 0 0 0 5.907-5.786 2352.43 2352.43 0 0 1 10.453-10.241c5.557-5.417 11.1-10.848 16.623-16.298 1.914-1.881 3.84-3.748 5.767-5.614 10.236-10.011 19.577-21.053 26.182-33.856l1.088-2.084c4.242-8.507 6.807-17.533 9.1-26.728l.808-3.16c5.66-27.124-1.16-57.625-15.809-80.84-2.825-4.156-5.826-8.105-9-12l-1.855-2.355C791.912 149.522 779.71 141.605 767 135l-2.691-1.426c-26.984-13.306-58.316-13.096-86.4-3.658-6.483 2.331-12.552 5.3-18.534 8.71l-1.914 1.068c-14.873 8.888-27.01 22.582-39.11 34.76a12050.537 12050.537 0 0 0-18.934 18.992c-4.669 4.69-9.344 9.373-14.019 14.058-9.138 9.16-18.27 18.326-27.398 27.496 4.838 5.827 10.044 11.18 15.409 16.522l2.847 2.848c2.593 2.593 5.19 5.184 7.786 7.773 2.806 2.8 5.608 5.602 8.41 8.403 4.853 4.85 9.707 9.697 14.562 14.543 7.02 7.008 14.038 14.02 21.055 21.032 11.388 11.38 22.777 22.76 34.168 34.137l2.064 2.061a1244109.039 1244109.039 0 0 0 31.12 31.075l2.067 2.064c11.355 11.342 22.709 22.685 34.06 34.03 7.005 7 14.01 13.996 21.017 20.99 4.794 4.787 9.587 9.575 14.38 14.364 2.766 2.767 5.534 5.532 8.305 8.295 2.997 2.99 5.99 5.982 8.983 8.976l2.68 2.668 2.41 2.416 2.099 2.094c2.278 2.456 2.569 3.55 2.898 6.96-.541 6.461-4.76 10.444-9.195 14.887l-1.452 1.463a1562.93 1562.93 0 0 1-4.818 4.817 5949.879 5949.879 0 0 1-13.078 13.101c-3.45 3.45-6.896 6.907-10.342 10.363-6.75 6.767-13.508 13.53-20.267 20.29a47552.614 47552.614 0 0 0-16.48 16.492 107838.612 107838.612 0 0 1-46.744 46.77l-2.545 2.545-2.55 2.549a54312.3 54312.3 0 0 0-40.86 40.908 54569.43 54569.43 0 0 1-41.973 42.013 23589.032 23589.032 0 0 0-23.558 23.576c-6.681 6.7-13.37 13.393-20.067 20.077a4294.19 4294.19 0 0 0-10.23 10.24 2514.805 2514.805 0 0 1-9.384 9.38 756.555 756.555 0 0 0-3.376 3.388c-12.01 12.12-24.26 20.82-41.894 21.383-20.67-.66-32.381-12.935-46.106-26.732a7219.763 7219.763 0 0 1-17.633-17.63 9840.45 9840.45 0 0 0-12.515-12.51 31618.45 31618.45 0 0 1-27.16-27.165 40986.29 40986.29 0 0 0-23.765-23.78l-1.594-1.595-6.41-6.408a154715.29 154715.29 0 0 1-60.07-60.1 112635.515 112635.515 0 0 0-66.995-67.01l-1.701-1.7a150240.734 150240.734 0 0 1-52.595-52.61 51528.66 51528.66 0 0 0-22.177-22.18 38533.4 38533.4 0 0 1-28.582-28.6c-4.591-4.597-9.183-9.193-13.78-13.784-4.21-4.206-8.414-8.417-12.616-12.632-1.518-1.52-3.037-3.04-4.558-4.556-7.874-7.855-15.438-15.69-22.242-24.51-.53-.67-1.058-1.344-1.604-2.037C28.728 343.53 12.89 304.585 8 265l-.28-2.07C4.825 238.652 6.04 212.87 11 189l.567-2.748C22.24 136.375 50.76 89.532 91 58l2.914-2.36c39.77-31.615 89.495-48.184 140.149-47.953ZM428 374l-1.922.907c-9.004 4.338-16.58 9.425-24.078 16.093l-2.477 2.008C382.873 406.91 371.683 427.296 366 448l-.965 3.285C360.44 469.73 361.245 490.914 367 509l.633 2.042c4.86 15.236 12.528 29.16 23.367 40.958l1.339 1.467c20.49 22.208 48.383 35.414 78.653 36.818 32.348.877 60.915-10.978 84.57-32.851 21.574-21.54 33.41-50.282 33.75-80.684-.127-30.883-12.642-58.924-34.062-80.938-12.921-12.756-28.392-21.349-45.5-27.187l-2.108-.724c-25.868-8.333-55.273-5.415-79.642 6.099Z" fill="#2698F5"/><path d="m497 407-.656 1.836c-3.095 9.313-3.625 16.828.469 25.91 3.742 7.103 9.544 11.502 17.175 13.871 9.86 1.877 17.344-1.223 26.012-5.617 8.966 15.69 10.345 34.295 7 51.875-5.333 19.105-17.732 35.457-34.875 45.438-16.933 9.497-37.522 11.785-56.375 7.062-18.72-5.968-34.074-17.907-43.996-34.945-9.415-18.41-11.134-37.51-5.754-57.43 6.378-19.296 19.151-33.954 36.89-43.566 17.755-8.497 35.274-8.81 54.11-4.434Z" fill="#2698F5"/><path d="m20 157 2 1v4h2v2h-4v3l-3-1 3-9Z" fill="#3296E4"/><path d="m406 455 3 4-1.438 2.063c-1.78 3.348-2.06 6.21-2.562 9.937l-2 1a703501381.39 703501381.39 0 0 0 1.465-10.645C405 458 405 458 406 455Z" fill="#3395E3"/><path d="m578 208 5 1-5 6-2-2v-3h2v-2Zm16-16 5 1-5 6-2-2v-3h2v-2Zm16-16 5 1-5 6-2-2v-3h2v-2Zm16-16 5 1-5 6-2-2v-3h2v-2Z" fill="#2E93F0"/><path d="m18 306 6 2v2h-2v4h-2c-1.257-2.906-2-4.796-2-8Zm912-148h2l2 8h-2v-2h-4v-2h2v-4Z" fill="#2F96E9"/><path d="m594 43 1 2c-.938 2.125-.938 2.125-2 4h-7c2.615-2.12 5.196-4.13 8-6Z" fill="#3195E4"/><path d="m586 450 6 2v2h-3l-1 2h2v2h-3l-1-8Z" fill="#3195EC"/><path d="m242 387 1 2c-1.125 2.563-1.125 2.563-3 5-2.688.813-2.688.813-5 1a5816.79 5816.79 0 0 1 2.938-3.438l1.652-1.933a49.663 49.663 0 0 1 2.41-2.63Z" fill="#3395E4"/><path d="m250 379 1 3c-1.125 2.125-1.125 2.125-3 4-2.688.75-2.688.75-5 1a5816.79 5816.79 0 0 1 2.938-3.438l1.652-1.933a49.663 49.663 0 0 1 2.41-2.63Zm16-16 1 3c-1.125 2.125-1.125 2.125-3 4-2.688.75-2.688.75-5 1a5816.79 5816.79 0 0 1 2.938-3.438l1.652-1.933a49.663 49.663 0 0 1 2.41-2.63Zm16-16 1 3c-1.125 2.125-1.125 2.125-3 4-2.688.75-2.688.75-5 1a5816.79 5816.79 0 0 1 2.938-3.438l1.652-1.933a49.663 49.663 0 0 1 2.41-2.63Zm16-16 1 3c-1.125 2.125-1.125 2.125-3 4-2.688.75-2.688.75-5 1a5816.79 5816.79 0 0 1 2.938-3.438l1.652-1.933a49.663 49.663 0 0 1 2.41-2.63Zm16-16 1 3c-1.125 2.125-1.125 2.125-3 4-2.688.75-2.688.75-5 1a5816.79 5816.79 0 0 1 2.938-3.438l1.652-1.933a49.663 49.663 0 0 1 2.41-2.63Zm16-16 1 3c-1.125 2.125-1.125 2.125-3 4-2.688.75-2.688.75-5 1a5816.79 5816.79 0 0 1 2.938-3.438l1.652-1.933a49.663 49.663 0 0 1 2.41-2.63Zm16-16 1 3c-1.125 2.125-1.125 2.125-3 4-2.688.75-2.688.75-5 1a5816.79 5816.79 0 0 1 2.938-3.438l1.652-1.933a49.663 49.663 0 0 1 2.41-2.63Zm16-16 1 3c-1.125 2.125-1.125 2.125-3 4-2.688.75-2.688.75-5 1a5816.79 5816.79 0 0 1 2.938-3.438l1.652-1.933a49.663 49.663 0 0 1 2.41-2.63Zm16-16 1 3c-1.125 2.125-1.125 2.125-3 4-2.688.75-2.688.75-5 1a5816.79 5816.79 0 0 1 2.938-3.438l1.652-1.933A49.663 49.663 0 0 1 378 251Zm16-16 1 3c-1.125 2.125-1.125 2.125-3 4-2.688.75-2.688.75-5 1a5816.79 5816.79 0 0 1 2.938-3.438l1.652-1.933A49.663 49.663 0 0 1 394 235Z" fill="#3196E6"/><path d="m474 155 1 3c-1.125 2.125-1.125 2.125-3 4-2.688.75-2.688.75-5 1a5816.79 5816.79 0 0 1 2.938-3.438l1.652-1.933A49.663 49.663 0 0 1 474 155Z" fill="#3295E6"/><path d="m490 139 1 3c-1.125 2.125-1.125 2.125-3 4-2.688.75-2.688.75-5 1a5816.79 5816.79 0 0 1 2.938-3.438l1.652-1.933A49.663 49.663 0 0 1 490 139Zm16-16 1 3c-1.125 2.125-1.125 2.125-3 4-2.688.75-2.688.75-5 1a5816.79 5816.79 0 0 1 2.938-3.438l1.652-1.933a49.663 49.663 0 0 1 2.41-2.63Zm16-16 1 3c-1.125 2.125-1.125 2.125-3 4-2.688.75-2.688.75-5 1a5816.79 5816.79 0 0 1 2.938-3.438l1.652-1.933a49.663 49.663 0 0 1 2.41-2.63Zm16-16 1 3c-1.125 2.125-1.125 2.125-3 4-2.688.75-2.688.75-5 1a5816.79 5816.79 0 0 1 2.938-3.438l1.652-1.933a49.663 49.663 0 0 1 2.41-2.63Zm16-16 1 3c-1.125 2.125-1.125 2.125-3 4-2.688.75-2.688.75-5 1a5816.79 5816.79 0 0 1 2.938-3.438l1.652-1.933a49.663 49.663 0 0 1 2.41-2.63Z" fill="#3196E6"/><path d="m418 211 1 2c-2.313 2.5-2.313 2.5-5 5h-3l7-7Z" fill="#2E97E6"/><path d="M426 203c0 3 0 3-2.5 5.688L421 211l-2-1 7-7Z" fill="#2F97E5"/><path d="m434 195 1 2c-2.313 2.5-2.313 2.5-5 5h-3l7-7Z" fill="#3096E6"/><path d="m450 179 1 2c-2.313 2.5-2.313 2.5-5 5h-3l7-7Z" fill="#3196E6"/></svg>
