<?xml version="1.0" encoding="UTF-8" standalone="no"?>
<svg
   width="41"
   height="25"
   viewBox="0 0 41 25"
   fill="none"
   version="1.1"
   id="svg17"
   sodipodi:docname="logo-simple.svg"
   xmlns:inkscape="http://www.inkscape.org/namespaces/inkscape"
   xmlns:sodipodi="http://sodipodi.sourceforge.net/DTD/sodipodi-0.dtd"
   xmlns="http://www.w3.org/2000/svg"
   xmlns:svg="http://www.w3.org/2000/svg">
  <defs
     id="defs21" />
  <sodipodi:namedview
     id="namedview19"
     pagecolor="#ffffff"
     bordercolor="#666666"
     borderopacity="1.0"
     inkscape:pageshadow="2"
     inkscape:pageopacity="0.0"
     inkscape:pagecheckerboard="0" />
  <path
     fill-rule="evenodd"
     clip-rule="evenodd"
     d="M4.54439 15.103L6.11624 11.6572L5.11715 10.7257L7.20147 8.26568L7.52445 8.57318L8.71734 5.95943C8.91544 5.56601 9.16952 5.20424 9.46236 4.88318C9.84132 4.44906 10.3366 4.1506 10.8835 4.01494C11.3572 3.91998 11.8524 4.00137 12.2745 4.24557C12.5156 4.38575 12.7396 4.55759 12.9334 4.76108L18.5791 10.9427L20.7323 8.5777L15.1339 2.47744V2.44126C14.7205 2.01619 14.2511 1.65442 13.743 1.36501C12.6922 0.759055 11.4735 0.564606 10.2978 0.804276C9.12645 1.06656 8.05845 1.69512 7.23592 2.6131C6.73207 3.16027 6.30142 3.77979 5.96552 4.45358L5.93107 4.52141L1.74089 13.7057C0.448959 16.4913 0.448959 18.9423 1.19828 20.8235C1.64184 21.9404 2.39117 22.89 3.3515 23.5593C4.29892 24.2195 5.40137 24.5949 6.53828 24.6536C8.66136 24.7757 11.0557 23.8849 13.0927 21.6962L13.7688 20.9727L11.5165 18.7116L10.8275 19.3854C9.47097 20.8415 7.96371 21.4384 6.67178 21.3661C6.09471 21.339 5.53487 21.1536 5.05255 20.8235C4.60468 20.5114 4.25586 20.0637 4.04915 19.5437C3.6185 18.472 3.68741 16.9616 4.53147 15.1121L4.54439 15.103ZM6.11624 11.6572L12.4812 17.5992L14.6344 15.2297L7.50292 8.57318L7.17994 8.26568L5.09562 10.7257L6.09471 11.6572H6.11624ZM16.7704 17.658L14.7808 19.8241C16.6369 21.7233 18.6049 22.8855 20.7409 23.0257C22.8769 23.1659 24.9483 22.3157 27.1231 20.2356L24.9311 17.8886C23.4712 19.2453 22.1448 19.8241 20.9218 19.7472C19.604 19.6613 18.2777 18.8428 16.9427 17.45L16.7618 17.649L16.7704 17.658ZM20.7668 13.2987L24.7675 17.658L26.9724 15.397L27.1877 15.6276L22.9157 10.9699L20.7625 13.3349V13.2987H20.7668ZM14.6559 15.2297L12.5027 17.5992L11.5122 18.68L13.7645 20.941L14.7808 19.8331L16.7704 17.667L16.9513 17.4681L20.7668 13.3078L22.92 10.9427L28.583 4.77012C28.7854 4.56663 29.0136 4.39027 29.2591 4.25009C29.6811 4.0059 30.1764 3.9245 30.6501 4.01946C31.197 4.1506 31.6922 4.45358 32.0712 4.8877C32.3684 5.20877 32.6181 5.57053 32.8205 5.96395L34.0737 8.71336L35.4948 11.8291L36.9935 15.1076C37.8548 16.9571 37.9021 18.4675 37.4715 19.5392C37.2648 20.0592 36.916 20.5069 36.4681 20.8189C35.9858 21.149 35.4259 21.3344 34.8532 21.3616C33.5612 21.4339 32.0497 20.837 30.6975 19.3809L29.7759 18.4087L29.3452 17.9565L27.192 15.6231L26.9767 15.3925L24.7718 17.6535L24.7459 17.6806L24.944 17.8932L27.136 20.2401L27.5193 20.6561L28.4538 21.6555C30.4907 23.8442 32.8894 24.735 35.0125 24.6129C36.1494 24.5542 37.2476 24.1788 38.195 23.5186C39.1553 22.8493 39.9046 21.8997 40.3482 20.7828C41.0975 18.9016 41.076 16.4506 39.8056 13.665L35.6111 4.48071L35.581 4.41288C35.2364 3.73909 34.8015 3.11957 34.289 2.5724C33.4665 1.65895 32.3985 1.02586 31.2271 0.763577C30.0515 0.523908 28.8328 0.722879 27.782 1.32431C27.2738 1.61373 26.8044 1.97549 26.391 2.40056L26.3565 2.44126L20.7582 8.54153L18.6049 10.9066L14.6645 15.2025L14.6559 15.2297ZM34.0823 8.71789L27.192 15.6005L29.3797 17.9474L35.4948 11.8155L34.0737 8.6998L34.0823 8.71789Z"
     fill="#76E1F0"
     id="path2" />
  <mask
     id="mask0_603_9034"
     style="mask-type:luminance"
     maskUnits="userSpaceOnUse"
     x="0"
     y="0"
     width="41"
     height="25">
    <path
       d="M4.54439 15.103L6.11624 11.6572L5.11715 10.7257L7.20147 8.26568L7.52445 8.57318L8.71734 5.95943C8.91544 5.56601 9.16952 5.20424 9.46236 4.88318C9.84132 4.44906 10.3366 4.1506 10.8835 4.01494C11.3572 3.91998 11.8524 4.00137 12.2745 4.24557C12.5156 4.38575 12.7396 4.55759 12.9334 4.76108L18.5791 10.9427L20.7323 8.5777L15.1339 2.47744V2.44126C14.7205 2.01619 14.2511 1.65442 13.743 1.36501C12.6922 0.759055 11.4735 0.564606 10.2978 0.804276C9.12645 1.06656 8.05845 1.69512 7.23592 2.6131C6.73207 3.16027 6.30142 3.77979 5.96552 4.45358L5.93107 4.52141L1.74089 13.7057C0.448959 16.4913 0.448959 18.9423 1.19828 20.8235C1.64184 21.9404 2.39117 22.89 3.3515 23.5593C4.29892 24.2195 5.40137 24.5949 6.53828 24.6536C8.66136 24.7757 11.0557 23.8849 13.0927 21.6962L13.7688 20.9727L11.5165 18.7116L10.8275 19.3854C9.47097 20.8415 7.96371 21.4384 6.67178 21.3661C6.09471 21.339 5.53487 21.1536 5.05255 20.8235C4.60468 20.5114 4.25586 20.0637 4.04915 19.5437C3.6185 18.472 3.68741 16.9616 4.53147 15.1121L4.54439 15.103ZM6.11624 11.6572L12.4812 17.5992L14.6344 15.2297L7.50292 8.57318L7.17994 8.26568L5.09562 10.7257L6.09471 11.6572H6.11624ZM16.7704 17.658L14.7808 19.8241C16.6369 21.7233 18.6049 22.8855 20.7409 23.0257C22.8769 23.1659 24.9483 22.3157 27.1231 20.2356L24.9311 17.8886C23.4712 19.2453 22.1448 19.8241 20.9218 19.7472C19.604 19.6613 18.2777 18.8428 16.9427 17.45L16.7618 17.649L16.7704 17.658ZM20.7668 13.2987L24.7675 17.658L26.9724 15.397L27.1877 15.6276L22.9157 10.9699L20.7625 13.3349V13.2987H20.7668ZM14.6559 15.2297L12.5027 17.5992L11.5122 18.68L13.7645 20.941L14.7808 19.8331L16.7704 17.667L16.9513 17.4681L20.7668 13.3078L22.92 10.9427L28.583 4.77012C28.7854 4.56663 29.0136 4.39027 29.2591 4.25009C29.6811 4.0059 30.1764 3.9245 30.6501 4.01946C31.197 4.1506 31.6922 4.45358 32.0712 4.8877C32.3684 5.20877 32.6181 5.57053 32.8205 5.96395L34.0737 8.71336L35.4948 11.8291L36.9935 15.1076C37.8548 16.9571 37.9021 18.4675 37.4715 19.5392C37.2648 20.0592 36.916 20.5069 36.4681 20.8189C35.9858 21.149 35.4259 21.3344 34.8532 21.3616C33.5612 21.4339 32.0497 20.837 30.6975 19.3809L29.7759 18.4087L29.3452 17.9565L27.192 15.6231L26.9767 15.3925L24.7718 17.6535L24.7459 17.6806L24.944 17.8932L27.136 20.2401L27.5193 20.6561L28.4538 21.6555C30.4907 23.8442 32.8894 24.735 35.0125 24.6129C36.1494 24.5542 37.2476 24.1788 38.195 23.5186C39.1553 22.8493 39.9046 21.8997 40.3482 20.7828C41.0975 18.9016 41.076 16.4506 39.8056 13.665L35.6111 4.48071L35.581 4.41288C35.2364 3.73909 34.8015 3.11957 34.289 2.5724C33.4665 1.65895 32.3985 1.02586 31.2271 0.763577C30.0515 0.523908 28.8328 0.722879 27.782 1.32431C27.2738 1.61373 26.8044 1.97549 26.391 2.40056L26.3565 2.44126L20.7582 8.54153L18.6049 10.9066L14.6645 15.2025L14.6559 15.2297ZM34.0823 8.71789L27.192 15.6005L29.3797 17.9474L35.4948 11.8155L34.0737 8.6998L34.0823 8.71789Z"
       fill="white"
       id="path4" />
  </mask>
  <g
     mask="url(#mask0_603_9034)"
     id="g11">
    <path
       fill-rule="evenodd"
       clip-rule="evenodd"
       d="M25.379 21.8861L23.1698 19.4759L22.4377 18.68L22.5196 18.5896C22.6358 18.4629 22.7693 18.3408 22.8813 18.2097L22.933 18.1554L22.9028 18.1916L23.0665 18.0876C23.243 17.9746 23.3895 17.8208 23.4971 17.6354C23.6263 17.5585 23.7426 17.4545 23.8287 17.3279C23.9579 17.2329 24.0656 17.1018 24.1345 16.9526L25.0345 17.9293L25.2154 18.1328L27.205 20.2944L27.782 20.9275C27.7433 20.9546 27.7088 20.9863 27.6744 21.0224L27.5107 21.14C27.4074 21.2033 27.3083 21.2802 27.2265 21.3752L26.981 21.547C26.8992 21.6148 26.8217 21.6827 26.7485 21.7595L26.5203 21.9495C26.3911 22.058 26.2748 22.1936 26.1413 22.2931L25.9217 22.4559L25.379 21.8861Z"
       fill="#06899C"
       id="path7" />
    <path
       fill-rule="evenodd"
       clip-rule="evenodd"
       d="M16.5939 21.4339L18.8031 19.0282L19.5352 18.2278L19.4534 18.1419C19.3371 18.0107 19.2036 17.8932 19.0917 17.7575L19.04 17.7078L19.0701 17.7394L18.9065 17.6354C18.7342 17.5178 18.5878 17.3641 18.4758 17.1832C18.3466 17.1063 18.2347 17.0023 18.1442 16.8757C18.015 16.7762 17.9117 16.6451 17.8385 16.4958L16.9384 17.4771L16.7576 17.6761L14.768 19.8422L14.1909 20.4707C14.2297 20.4979 14.2641 20.5295 14.2986 20.5612C14.3546 20.6019 14.4105 20.6381 14.4622 20.6833C14.5699 20.7421 14.6646 20.8189 14.7464 20.9139L14.9919 21.0857C15.0824 21.1491 15.1426 21.2305 15.2245 21.2983L15.4527 21.4927C15.5819 21.5967 15.6982 21.7324 15.8317 21.8319L16.0556 21.9992L16.5767 21.4249L16.5939 21.4339Z"
       fill="#06899C"
       id="path9" />
  </g>
  <path
     fill-rule="evenodd"
     clip-rule="evenodd"
     d="M14.6516 15.2387L7.52442 8.58221L6.11621 11.6663L12.4768 17.6083L14.6516 15.2387Z"
     fill="#06899C"
     id="path13" />
  <path
     fill-rule="evenodd"
     clip-rule="evenodd"
     d="M34.0688 8.71796L27.2129 15.6005L29.3833 17.9611L35.4899 11.8337L34.0688 8.71796Z"
     fill="#06899C"
     id="path15" />
</svg>
