<svg width="94" height="58" viewBox="0 0 94 58" fill="none" xmlns="http://www.w3.org/2000/svg">
  <g clip-path="url(#clip0_117_128338)">
    <path d="M89.4702 7.63023C88.1936 5.89568 86.8637 4.16914 85.1036 2.89981C83.4828 1.73188 81.6304 0.80056 79.6716 0.378932C78.5715 0.142321 77.3898 0 76.2641 0C76.0715 0 75.8781 0.00444664 75.6839 0.0115627C68.0366 0.302433 61.7706 6.53524 61.4193 14.1975C61.2304 18.3142 62.6844 22.2173 65.5144 25.1901C66.7831 26.5208 68.309 27.5571 69.7914 28.628C70.9305 29.4517 73.2717 30.7913 73.0277 31.3384C72.7837 31.8854 71.2658 30.5787 70.3778 30.053C69.4418 29.4989 68.4447 29.2178 67.4085 29.2178C66.3457 29.2178 65.3299 29.4855 64.3904 30.0148C63.3107 30.6232 62.5105 31.5848 62.0785 32.8016C62.0785 32.8016 58.6221 42.6085 58.3294 43.3068C58.0375 44.0042 57.7527 43.7257 57.7527 43.2445C57.7527 42.7633 57.7474 38.7774 57.7474 38.7774C57.7474 38.0409 57.6099 37.3568 57.3358 36.7448C56.7094 35.3403 51.422 31.3393 50.4302 30.4507C49.9626 30.0308 49.4179 29.7124 48.8067 29.5016C48.2567 29.313 47.6844 29.2178 47.1051 29.2178C46.5249 29.2178 45.9518 29.313 45.3965 29.5033C44.7897 29.7124 44.2458 30.0317 43.7765 30.4533C43.4181 30.7753 43.1147 31.1516 42.8699 31.575C42.8264 31.5368 42.7847 31.4967 42.7403 31.4594C41.8585 30.7184 40.8117 30.1633 39.6326 29.8093C38.5423 29.4802 37.3518 29.3139 36.0929 29.3139H31.965C29.0294 29.3139 28.4749 30.2229 28.2274 30.1954C27.8956 30.158 23.3392 25.2933 22.6738 24.7516C21.4984 23.7944 20.1064 23.0837 18.5362 22.6399C17.1052 22.236 15.5429 22.0305 13.8937 22.0305H8.10325C6.85148 22.0305 5.79399 22.1577 4.87313 22.421C3.68435 22.7582 2.68896 23.3452 1.91536 24.1663C1.15596 24.9677 0.623669 25.9675 0.330909 27.1399C0.108234 28.0347 0 29.0417 0 30.2194C0 30.2194 0 50.615 0 50.6337C0 52.0551 0.762064 53.1145 1.81334 53.972C3.17157 55.0803 7.13537 57.1494 7.56475 57.394C8.04647 57.6679 8.89636 57.9748 9.55019 57.9748C13.3445 57.9748 84.5891 57.9659 85.7921 57.9659C87.3872 57.9659 88.458 56.8434 88.458 55.558V48.6003C88.458 48.6003 88.4384 47.3727 88.8616 45.8214C89.1934 44.5983 90.0131 43.3904 90.0131 43.3904C90.0131 43.3904 91.72 40.5386 92.5584 39.2061C93.3958 37.8727 94 36.7048 94 33.9811C94 31.2566 94 20.1946 94 18.9715C94 17.7484 93.8882 15.8582 92.1148 12.245C91.0733 10.1235 90.6537 9.23758 89.4702 7.63023Z" fill="#00B2FF"/>
    <path d="M48.3383 50.8755C47.6259 50.8755 47.0333 50.8079 46.5595 50.6736C46.0849 50.5393 45.7052 50.3205 45.4213 50.0198C45.1357 49.7192 44.9352 49.3296 44.8163 48.8537C44.6974 48.3778 44.6389 47.7996 44.6389 47.1173V34.0575C44.6389 33.6617 44.7054 33.313 44.8402 33.0115C44.9751 32.7108 45.1561 32.4564 45.3858 32.25C45.6147 32.0446 45.88 31.8898 46.1807 31.7866C46.4806 31.6834 46.7893 31.6318 47.106 31.6318C47.4219 31.6318 47.7297 31.6834 48.0304 31.7866C48.3312 31.8898 48.5964 32.0446 48.8262 32.25C49.0551 32.4564 49.237 32.7108 49.3709 33.0115C49.5058 33.313 49.5732 33.6617 49.5732 34.0575V46.0224C49.5732 46.307 49.6211 46.4947 49.716 46.581C49.8101 46.669 49.9928 46.7117 50.2607 46.7117H55.5269C55.8755 46.7117 56.1718 46.7722 56.4176 46.8905C56.6624 47.0097 56.8594 47.168 57.0102 47.3664C57.161 47.5639 57.271 47.7863 57.342 48.0318C57.413 48.2782 57.4493 48.5201 57.4493 48.7576C57.4493 48.9951 57.413 49.2415 57.342 49.495C57.271 49.7485 57.1557 49.9789 56.9978 50.1853C56.8399 50.3916 56.642 50.558 56.4051 50.6852C56.1674 50.8115 55.8755 50.8746 55.5269 50.8746H48.3383V50.8755Z" fill="white"/>
    <path d="M24.8882 49.5903L24.8048 49.4516L23.7677 47.7064L19.5271 40.5689C20.6609 39.8537 21.5774 38.9331 22.2818 37.8088C22.9844 36.6844 23.3357 35.3626 23.3357 33.8478V33.4697C23.3357 32.0598 23.0997 30.8412 22.6277 29.8103C22.1558 28.7793 21.4993 27.9218 20.6609 27.2387C19.8208 26.5547 18.8245 26.0503 17.6712 25.7239C16.517 25.3983 15.2582 25.2346 13.8955 25.2346H8.10506C7.16024 25.2346 6.37422 25.3245 5.74435 25.5033C5.11447 25.6812 4.61145 25.9711 4.23352 26.3705C3.8556 26.7699 3.58856 27.2849 3.43065 27.9165C3.27363 28.5472 3.19556 29.3148 3.19556 30.2194V47.4715V49.8928C3.19556 50.302 3.52735 50.6337 3.93455 50.6337H4.07384H8.90704C9.31513 50.6337 9.64604 50.302 9.64604 49.8928V47.444V42.1469H13.6737L16.7007 47.5889L18.1521 50.1997C18.1529 50.1997 18.1538 50.1988 18.1547 50.1988C18.2709 50.4558 18.5282 50.6346 18.8272 50.6346C18.8644 50.6346 18.8982 50.6293 18.9328 50.624C18.8982 50.6293 18.8627 50.6346 18.8272 50.6346H18.9328H24.2131C24.6212 50.6346 24.9521 50.3028 24.9521 49.8937C24.953 49.7843 24.929 49.6828 24.8882 49.5903ZM16.1453 35.9301C15.6104 36.519 14.8075 36.8143 13.7376 36.8143H9.64693V31.5768C9.64693 31.1979 9.70992 30.9515 9.83589 30.835C9.96187 30.7193 10.2023 30.6615 10.5589 30.6615H13.7376C14.8075 30.6615 15.6104 30.9568 16.1453 31.5448C16.6794 32.1346 16.9473 32.8284 16.9473 33.6272V33.8478C16.9482 34.6474 16.6803 35.3413 16.1453 35.9301Z" fill="white"/>
    <path d="M42.6773 35.343C42.3224 34.5193 41.8283 33.8407 41.1948 33.3096C40.5623 32.7795 39.81 32.3819 38.9406 32.1203C38.0712 31.8588 37.1219 31.7272 36.0937 31.7272H31.9658C31.2534 31.7272 30.6608 31.7948 30.1862 31.93C29.7115 32.0652 29.3327 32.2822 29.0479 32.5838C28.7623 32.8844 28.5609 33.274 28.442 33.749C28.324 34.2249 28.2646 34.804 28.2646 35.4845V47.4493V50.133C28.2646 50.5421 28.5955 50.8739 29.0036 50.8739H32.412C32.8201 50.8739 33.151 50.5421 33.151 50.133V47.4493V45.214H36.0928C37.121 45.214 38.0703 45.0832 38.9397 44.8208C39.8091 44.5593 40.5605 44.1634 41.1939 43.6315C41.8265 43.1005 42.3206 42.4227 42.6764 41.5981C43.033 40.7735 43.2113 39.7986 43.2113 38.6725V38.2686C43.2122 37.1434 43.0339 36.1685 42.6773 35.343ZM38.348 38.5542C38.348 38.8877 38.293 39.2044 38.1821 39.506C38.0721 39.8066 37.9097 40.077 37.6959 40.3145C37.4821 40.5529 37.2213 40.7388 36.9125 40.874C36.6047 41.0092 36.2525 41.0768 35.8568 41.0768H33.1528V36.5572C33.1528 36.2717 33.1998 36.0849 33.2956 35.9986C33.3906 35.9105 33.5724 35.8678 33.8412 35.8678H35.8577C36.2534 35.8678 36.6056 35.9354 36.9134 36.0698C37.2222 36.205 37.4821 36.3909 37.6968 36.6293C37.9097 36.8668 38.0729 37.1372 38.1829 37.4378C38.2938 37.7394 38.3488 38.0569 38.3488 38.3887V38.5542H38.348Z" fill="white"/>
    <path d="M76.1567 49.8668L76.1469 49.8393L75.7947 48.8581L70.3263 33.6065C70.1036 32.9563 69.7133 32.4635 69.1517 32.1317C68.5901 31.7991 68.0091 31.6318 67.4076 31.6318C66.7591 31.6318 66.146 31.7946 65.5694 32.1202C64.9927 32.4448 64.5847 32.9403 64.3469 33.6065L58.9628 48.8581L58.6008 49.8819C58.6017 49.8819 58.6035 49.8819 58.6044 49.8828C58.576 49.962 58.5582 50.0447 58.5582 50.1337C58.5582 50.5429 58.8891 50.8746 59.2972 50.8746H62.8245C63.1484 50.8746 63.4216 50.6647 63.5218 50.3738C63.5218 50.3756 63.521 50.3765 63.5201 50.3783C63.5218 50.3783 63.5245 50.3783 63.5254 50.3783L63.9903 48.8581L64.275 47.9268H70.3724L70.6652 48.8581L71.1416 50.3783C71.1425 50.3783 71.1434 50.3783 71.1443 50.3783C71.2454 50.6674 71.5169 50.8755 71.8389 50.8755H71.932H75.4665C75.8754 50.8755 76.2063 50.5437 76.2063 50.1346C76.2081 50.0394 76.1886 49.9496 76.1567 49.8668ZM65.5108 43.9062C65.5108 43.9062 66.799 39.5396 66.964 39.0379C67.082 38.6794 67.1849 38.3717 67.3331 38.3717C67.4812 38.3717 67.5823 38.683 67.703 39.0513C67.876 39.5796 69.142 43.9062 69.142 43.9062H65.5108Z" fill="white"/>
    <path d="M90.9438 33.024C90.8169 32.7144 90.6315 32.4529 90.3857 32.2385C90.14 32.0242 89.8765 31.8694 89.5918 31.7751C89.197 31.6488 88.8315 31.6007 88.5005 31.6319C88.1688 31.663 87.8636 31.7511 87.5868 31.8934C87.3091 32.0366 87.0616 32.2305 86.8407 32.476C86.618 32.7215 86.4211 32.9866 86.2472 33.273L83.0446 38.7907L79.7231 33.273C79.3114 32.5908 78.7818 32.1033 78.1333 31.8098C77.4848 31.5162 76.7813 31.5287 76.0228 31.8454C75.7531 31.9565 75.5082 32.1264 75.2864 32.3559C75.0646 32.5872 74.8987 32.8523 74.7887 33.1529C74.6778 33.4545 74.6388 33.7836 74.6698 34.1403C74.7018 34.4979 74.8357 34.8581 75.0735 35.2228L80.4594 43.7141V48.3245V50.1328C80.4594 50.542 80.7903 50.8738 81.1984 50.8738H84.5581C84.9653 50.8738 85.297 50.542 85.297 50.1328V48.5788V43.8564L90.6821 35.2219C90.9349 34.8261 91.0742 34.4374 91.0972 34.0558C91.1221 33.6778 91.0697 33.3335 90.9438 33.024Z" fill="white"/>
    <path d="M88.245 14.8068C88.245 13.9938 88.1111 12.792 88.0011 12.317C86.7307 6.81362 81.7129 2.75033 75.7876 2.97626C69.6104 3.21198 64.5013 8.2911 64.2165 14.483C63.898 21.4176 69.4117 27.1407 76.2578 27.1407C77.9736 27.1407 79.6042 26.7796 81.0813 26.1311C81.9054 25.7691 82.8574 25.8679 83.5555 26.4389L87.294 29.4962C87.6746 29.8084 88.2441 29.5362 88.2441 29.0443V14.8068H88.245Z" fill="white"/>
    <path d="M81.4069 17.2236C81.4069 16.2967 80.5233 15.538 79.4427 15.538H72.0545C70.9748 15.538 70.0903 16.2958 70.0903 17.2236V18.1149H70.0948C70.1365 19.8085 71.7653 22.687 75.7486 22.687C79.7319 22.687 81.3598 19.8085 81.4024 18.1149H81.4069V17.2236Z" fill="#00B2FF"/>
  </g>
  <defs>
    <clipPath id="clip0_117_128338">
      <rect width="94" height="58" fill="white"/>
    </clipPath>
  </defs>
</svg>